<svg height="512pt" fill="#FF5F64" viewBox="0 0 512 512" width="512pt" xmlns="http://www.w3.org/2000/svg"><path d="m68.726562 201.378906 21.175782 21.222656 13.746094-13.765624 26.441406 26.492187 41.78125-41.871094-26.4375-26.492187 21.175781-21.222656 26.4375 26.492187 41.78125-41.871094-26.4375-26.503906 13.738281-13.765625-21.175781-21.222656-31.699219 31.769531-100.425781-100.640625-68.828125 68.976562 100.425781 100.636719zm0 0"/><path d="m381.863281 277.710938-41.785156 41.871093 15.617187 15.648438-21.175781 21.21875-15.617187-15.648438-41.78125 41.875 96.953125 97.15625 136.839843 32.167969-32.097656-137.128906zm0 0"/><path d="m408.359375 208.835938 13.738281 13.765624 21.175782-21.222656-31.699219-31.765625 100.425781-100.636719-68.828125-68.976562-100.425781 100.640625-31.699219-31.769531-21.175781 21.222656 13.738281 13.765625-270.425781 271.011719-.007813.027344-32.089843 137.101562 136.679687-32.125.160156-.039062zm-226.625 143.351562-21.175781-21.21875 184.84375-185.226562 21.175781 21.222656zm0 0"/></svg>