<svg height="448pt" fill="#FF5F64" viewBox="-8 0 448 448" width="448pt" xmlns="http://www.w3.org/2000/svg"><path d="m0 376c0 13.253906 10.746094 24 24 24h24v-112h-24c-13.253906 0-24 10.746094-24 24zm0 0"/><path d="m368 144h-32v48h8c4.417969 0 8 3.582031 8 8s-3.582031 8-8 8h-8v8c0 13.253906-10.746094 24-24 24s-24-10.746094-24-24v-8h-8c-4.417969 0-8-3.582031-8-8s3.582031-8 8-8h8v-48h-144v48h8c4.417969 0 8 3.582031 8 8s-3.582031 8-8 8h-8v8c0 13.253906-10.746094 24-24 24s-24-10.746094-24-24v-8h-8c-4.417969 0-8-3.582031-8-8s3.582031-8 8-8h8v-48h-32v280c0 13.253906 10.746094 24 24 24h256c13.253906 0 24-10.746094 24-24zm-32 280c0 4.417969-3.582031 8-8 8h-224c-4.417969 0-8-3.582031-8-8v-128c0-4.417969 3.582031-8 8-8h224c4.417969 0 8 3.582031 8 8zm0 0"/><path d="m96 128v-96h-40c-13.253906 0-24 10.746094-24 24v48c0 13.253906 10.746094 24 24 24zm0 0"/><path d="m432 312c0-13.253906-10.746094-24-24-24h-24v112h24c13.253906 0 24-10.746094 24-24zm0 0"/><path d="m248 384h-24v8c0 4.417969-3.582031 8-8 8s-8-3.582031-8-8v-8h-24c-28.691406-.023438-55.566406-14.042969-72-37.558594v69.558594h208v-69.558594c-16.433594 23.515625-43.308594 37.535156-72 37.558594zm0 0"/><path d="m112 32h16v96h-16zm0 0"/><path d="m184 368h24v-8c0-4.417969 3.582031-8 8-8s8 3.582031 8 8v8h24c36.652344-.042969 67.441406-27.578125 71.558594-64h-207.117188c4.117188 36.421875 34.90625 63.957031 71.558594 64zm0 0"/><path d="m262.632812 16c-3.402343-9.582031-12.464843-15.9882812-22.632812-16h-48c-10.167969.0117188-19.230469 6.417969-22.632812 16zm0 0"/><path d="m312 224c4.417969 0 8-3.582031 8-8v-8h-16v8c0 4.417969 3.582031 8 8 8zm0 0"/><path d="m400 104v-48c0-13.253906-10.746094-24-24-24h-40v96h40c13.253906 0 24-10.746094 24-24zm0 0"/><path d="m304 144h16v48h-16zm0 0"/><path d="m112 144h16v48h-16zm0 0"/><path d="m144 32h144v96h-144zm0 0"/><path d="m120 224c4.417969 0 8-3.582031 8-8v-8h-16v8c0 4.417969 3.582031 8 8 8zm0 0"/><path d="m304 32h16v96h-16zm0 0"/></svg>