<?xml version="1.0" encoding="iso-8859-1"?>
<!-- Generator: Adobe Illustrator 19.0.0, SVG Export Plug-In . SVG Version: 6.00 Build 0)  -->
<svg version="1.1" id="Layer_1" xmlns="http://www.w3.org/2000/svg" xmlns:xlink="http://www.w3.org/1999/xlink" x="0px" y="0px"
	 viewBox="0 0 512.001 512.001" style="enable-background:new 0 0 512.001 512.001;" xml:space="preserve">
<g>
	<g>
		<path d="M461.468,157.461C436.584,64.751,352.092,0,256,0S75.417,64.751,50.546,157.407l-0.188,0.688
			c-4.711,17.75-7.098,36.135-7.098,54.644v130.858c0,46.842,35.346,85.583,80.769,90.951v25.426
			c0,27.933,22.327,51.269,49.771,52.022c0.098,0.003,0.198,0.004,0.297,0.004h163.808c0.098,0,0.198-0.001,0.297-0.004
			c27.443-0.753,49.769-24.089,49.769-52.022v-25.426c45.422-5.368,80.769-44.11,80.769-90.951V212.739
			C468.739,194.034,466.291,175.435,461.468,157.461z M377.153,413.549c-5.974,0-10.817,4.843-10.817,10.817v35.607
			c0,16.279-12.813,29.883-28.592,30.392h-16.282v-51.254c0-5.974-4.843-10.817-10.817-10.817c-5.974,0-10.817,4.843-10.817,10.817
			v51.254h-33.011v-51.254c0-5.974-4.843-10.817-10.817-10.817c-5.974,0-10.817,4.843-10.817,10.817v51.254h-33.01v-51.254
			c0-5.974-4.843-10.817-10.817-10.817s-10.817,4.843-10.817,10.817v51.254h-16.281c-15.779-0.509-28.594-14.113-28.594-30.392
			v-35.607c0-5.974-4.843-10.817-10.817-10.817c-38.571,0-69.951-31.38-69.951-69.951V212.739c0-16.637,2.145-33.156,6.352-49.012
			l0.18-0.658C93.779,79.795,169.678,21.634,256,21.634s162.221,58.161,184.572,141.436c4.334,16.145,6.531,32.857,6.531,49.67
			v130.857h0.001C447.104,382.169,415.724,413.549,377.153,413.549z"/>
	</g>
</g>
<g>
	<g>
		<circle cx="159.359" cy="342.892" r="23.481"/>
	</g>
</g>
<g>
	<g>
		<circle cx="352.641" cy="342.892" r="23.481"/>
	</g>
</g>
<g>
	<g>
		<path d="M264.554,355.945c-4.497-5.269-12.613-5.269-17.11,0c-12.95,15.172-33.939,50.041-13.233,50.041h43.576
			C298.491,405.985,277.503,371.116,264.554,355.945z"/>
	</g>
</g>
<g>
</g>
<g>
</g>
<g>
</g>
<g>
</g>
<g>
</g>
<g>
</g>
<g>
</g>
<g>
</g>
<g>
</g>
<g>
</g>
<g>
</g>
<g>
</g>
<g>
</g>
<g>
</g>
<g>
</g>
</svg>
